<svg width="16" height="17" viewBox="0 0 16 17" fill="none" xmlns="http://www.w3.org/2000/svg">
<path d="M8 11.3581C5.24 11.3581 3 9.19141 3 6.52474C3 3.85807 5.24 1.69141 8 1.69141C10.76 1.69141 13 3.85807 13 6.52474C13 9.19141 10.76 11.3581 8 11.3581ZM8 2.69141C5.79333 2.69141 4 4.41141 4 6.52474C4 8.63807 5.79333 10.3581 8 10.3581C10.2067 10.3581 12 8.63807 12 6.52474C12 4.41141 10.2067 2.69141 8 2.69141Z" fill="#5500A9"/>
<path d="M10.4127 16.0261C10.226 16.0261 10.0393 15.9794 9.84601 15.8928L8.05268 15.0461C8.03268 15.0394 7.95935 15.0394 7.93268 15.0461L6.15269 15.8861C5.75936 16.0728 5.34603 16.0661 5.02603 15.8594C4.69269 15.6461 4.49936 15.2528 4.50603 14.7861L4.51268 9.86611C4.51268 9.59278 4.72601 9.35278 5.01268 9.36611C5.28601 9.36611 5.51268 9.59278 5.51268 9.86611L5.50603 14.7861C5.50603 14.9328 5.54602 15.0061 5.56602 15.0128C5.57936 15.0194 5.63936 15.0261 5.73269 14.9794L7.51935 14.1328C7.80602 13.9994 8.19936 13.9994 8.48603 14.1328L10.2794 14.9794C10.3727 15.0261 10.4327 15.0194 10.446 15.0128C10.466 14.9994 10.506 14.9261 10.506 14.7861L10.506 9.74609C10.506 9.47276 10.7327 9.24609 11.006 9.24609C11.2794 9.24609 11.506 9.47276 11.506 9.74609L11.506 14.7861C11.506 15.2594 11.3127 15.6461 10.9794 15.8594C10.806 15.9728 10.6127 16.0261 10.4127 16.0261Z" fill="#5500A9"/>
</svg>
