<svg width="27" height="26" viewBox="0 0 27 26" fill="none" xmlns="http://www.w3.org/2000/svg">
<path d="M11.1482 20.2796C5.77051 20.279 1.39639 16.0323 1.39573 10.8112C1.39507 5.59 5.76812 1.3442 11.1458 1.34474C16.5236 1.34529 20.8977 5.59199 20.8984 10.8131C20.899 16.0343 16.5148 20.2801 11.1482 20.2796ZM11.1461 2.98042C6.69436 2.97996 3.06875 6.50008 3.06929 10.8222C3.06984 15.1442 6.69634 18.6543 11.148 18.6547C15.5997 18.6552 19.2253 15.135 19.2248 10.813C19.2242 6.49089 15.5977 2.98087 11.1461 2.98042Z" fill="#FFAF1A"/>
<path d="M18.9937 24.6155C16.9296 24.6153 14.9881 23.6402 13.7941 21.9936C13.5263 21.6252 13.6155 21.1161 13.9948 20.8562C14.3741 20.5963 14.8985 20.683 15.1663 21.0513C16.0479 22.2646 17.4761 22.9797 18.9935 22.9798C21.5819 22.9801 23.6792 20.9438 23.6789 18.4308C23.6787 16.9684 22.9421 15.5818 21.7148 14.7259C21.3354 14.4659 21.2572 13.9568 21.5249 13.5885C21.7927 13.2202 22.317 13.1445 22.6964 13.4045C24.359 14.5637 25.3522 16.4378 25.3524 18.4309C25.3529 21.8539 22.5082 24.6159 18.9937 24.6155Z" fill="#FFAF1A"/>
</svg>
