<svg width="21" height="20" viewBox="0 0 21 20" fill="none" xmlns="http://www.w3.org/2000/svg">
<path d="M6.49043 1.55778L9.68522 1.55778C10.156 1.55778 11.1817 1.69726 11.7282 2.23056L14.2756 4.15045L13.5022 5.1268L10.8959 3.15769C10.6857 2.96078 10.156 2.79668 9.68522 2.79668L6.49043 2.79668C5.73376 2.79668 4.91825 3.38742 4.7501 4.05199L2.71552 10.0824C2.581 10.4434 2.60623 10.7716 2.78278 11.0095C2.96774 11.2639 3.30404 11.4115 3.716 11.4115L7.07894 11.4115C7.51612 11.4115 7.91968 11.592 8.19712 11.9038C8.48297 12.2238 8.60908 12.6504 8.54182 13.0935L8.12145 15.7272C8.02056 16.1866 8.34004 16.7035 8.79404 16.8512C9.206 16.9989 9.73567 16.7856 9.92063 16.523L13.3676 11.5182L14.4102 12.1992L10.9631 17.204C10.4335 17.9752 9.27326 18.3445 8.36527 18.0081C7.31435 17.6717 6.64176 16.5394 6.87716 15.4892L7.28912 12.9048C7.29753 12.8474 7.29753 12.7653 7.23868 12.6997C7.19664 12.6586 7.13779 12.634 7.07053 12.634L3.70759 12.634C2.88367 12.634 2.16904 12.2976 1.74868 11.7151C1.33672 11.149 1.25264 10.4024 1.52168 9.68037L3.53104 3.7074C3.84211 2.51773 5.13684 1.55778 6.49043 1.55778Z" fill="white"/>
<path d="M15.6519 2.46257L16.4927 2.46257C18.048 2.46257 18.8047 3.17637 18.8047 4.6368L18.8047 12.6773C18.8047 14.1378 18.048 14.8516 16.4927 14.8516L15.6519 14.8516C14.0966 14.8516 13.3399 14.1378 13.3399 12.6773L13.3399 4.6368C13.3399 3.17637 14.0966 2.46257 15.6519 2.46257ZM16.4927 13.6209C17.4091 13.6209 17.5436 13.4075 17.5436 12.6773L17.5436 4.6368C17.5436 3.90658 17.4091 3.69326 16.4927 3.69326L15.6519 3.69326C14.7355 3.69326 14.601 3.90658 14.601 4.6368L14.601 12.6773C14.601 13.4075 14.7355 13.6209 15.6519 13.6209L16.4927 13.6209Z" fill="white"/>
</svg>
