<svg width="25" height="25" viewBox="0 0 25 25" fill="none" xmlns="http://www.w3.org/2000/svg">
<path d="M11.1774 22.4455C10.8815 22.4455 10.5856 22.3946 10.3101 22.2931C9.03454 21.8765 8.218 20.4752 8.50349 19.1756L9.00295 15.9773C9.01314 15.9062 9.01313 15.8047 8.94169 15.7234C8.89066 15.6727 8.81923 15.6422 8.7376 15.6422L4.65607 15.6415C3.65609 15.6413 2.7887 15.2248 2.27839 14.5038C1.77829 13.8032 1.6761 12.8792 2.00247 11.9857L4.43996 4.59429C4.81726 3.12209 6.39866 1.93439 8.03127 1.93467L11.9087 1.93534C12.4801 1.93544 13.725 2.10827 14.3884 2.76836L17.4805 5.14484L16.542 6.35296L13.3784 3.91555C13.1233 3.66166 12.4804 3.45848 11.909 3.45838L8.03152 3.45771C7.11318 3.45755 6.12353 4.18844 5.91959 5.01085L3.4515 12.4733C3.28831 12.9201 3.31899 13.3262 3.53332 13.6207C3.75785 13.9355 4.16603 14.1183 4.66602 14.1184L8.74755 14.1191C9.27815 14.1192 9.76797 14.3427 10.1048 14.7286C10.4518 15.1246 10.6049 15.6526 10.5234 16.2009L10.0137 19.4601C9.89135 20.0287 10.2792 20.6685 10.8302 20.8513C11.3201 21.0342 11.9731 20.7703 12.1975 20.4454L16.38 14.2524L17.6454 15.1056L13.4629 21.2985C12.9834 22.0092 12.0754 22.4457 11.1774 22.4455Z" fill="white"/>
<path d="M20.1766 18.3873L19.1562 18.3871C17.2685 18.3868 16.35 17.5033 16.3497 15.6959L16.3481 5.7454C16.3478 3.93805 17.266 3.05485 19.1537 3.05517L20.1741 3.05535C22.0618 3.05568 22.9803 3.9392 22.9806 5.74654L22.9822 15.6971C22.9825 17.5044 22.0643 18.3876 20.1766 18.3873ZM19.154 4.57821C18.0417 4.57802 17.8785 4.84199 17.8787 5.74566L17.8803 15.6962C17.8805 16.5999 18.0438 16.8639 19.156 16.8641L20.1764 16.8643C21.2886 16.8645 21.4518 16.6005 21.4517 15.6968L21.45 5.74628C21.4499 4.84261 21.2866 4.57858 20.1743 4.57839L19.154 4.57821Z" fill="white"/>
</svg>
