<svg width="24" height="25" viewBox="0 0 24 25" fill="none" xmlns="http://www.w3.org/2000/svg">
<path d="M16 22.8922H8C4.35 22.8922 2.25 20.7791 2.25 17.1063V7.04375C2.25 3.37094 4.35 1.25781 8 1.25781H16C19.65 1.25781 21.75 3.37094 21.75 7.04375V17.1063C21.75 20.7791 19.65 22.8922 16 22.8922ZM8 2.76719C5.14 2.76719 3.75 4.16588 3.75 7.04375V17.1063C3.75 19.9841 5.14 21.3828 8 21.3828H16C18.86 21.3828 20.25 19.9841 20.25 17.1063V7.04375C20.25 4.16588 18.86 2.76719 16 2.76719H8Z" fill="white"/>
<path d="M18.5 9.30781H16.5C14.98 9.30781 13.75 8.07013 13.75 6.54063V4.52813C13.75 4.11556 14.09 3.77344 14.5 3.77344C14.91 3.77344 15.25 4.11556 15.25 4.52813V6.54063C15.25 7.23494 15.81 7.79844 16.5 7.79844H18.5C18.91 7.79844 19.25 8.14056 19.25 8.55312C19.25 8.96569 18.91 9.30781 18.5 9.30781Z" fill="white"/>
<path d="M12 13.8375H8C7.59 13.8375 7.25 13.4954 7.25 13.0828C7.25 12.6703 7.59 12.3281 8 12.3281H12C12.41 12.3281 12.75 12.6703 12.75 13.0828C12.75 13.4954 12.41 13.8375 12 13.8375Z" fill="white"/>
<path d="M16 17.8609H8C7.59 17.8609 7.25 17.5188 7.25 17.1062C7.25 16.6937 7.59 16.3516 8 16.3516H16C16.41 16.3516 16.75 16.6937 16.75 17.1062C16.75 17.5188 16.41 17.8609 16 17.8609Z" fill="white"/>
</svg>
