<svg width="24" height="25" viewBox="0 0 24 25" fill="none" xmlns="http://www.w3.org/2000/svg">
<path d="M12 15.8711C9.93 15.8711 8.25 14.178 8.25 12.0918C8.25 10.0056 9.93 8.3125 12 8.3125C14.07 8.3125 15.75 10.0056 15.75 12.0918C15.75 14.178 14.07 15.8711 12 15.8711ZM12 9.82422C10.76 9.82422 9.75 10.8421 9.75 12.0918C9.75 13.3415 10.76 14.3594 12 14.3594C13.24 14.3594 14.25 13.3415 14.25 12.0918C14.25 10.8421 13.24 9.82422 12 9.82422Z" fill="white"/>
<path d="M15.21 22.3651C15 22.3651 14.79 22.3349 14.58 22.2845C13.96 22.1132 13.44 21.7201 13.11 21.1658L12.99 20.9643C12.4 19.9363 11.59 19.9363 11 20.9643L10.89 21.1557C10.56 21.7201 10.04 22.1232 9.42 22.2845C8.79 22.4558 8.14 22.3651 7.59 22.0325L5.87 21.0348C5.26 20.6821 4.82 20.1076 4.63 19.4122C4.45 18.7168 4.54 18.0013 4.89 17.3865C5.18 16.8725 5.26 16.4089 5.09 16.1167C4.92 15.8244 4.49 15.6531 3.9 15.6531C2.44 15.6531 1.25 14.4538 1.25 12.9824V11.2086C1.25 9.73722 2.44 8.53793 3.9 8.53793C4.49 8.53793 4.92 8.3666 5.09 8.07433C5.26 7.78207 5.19 7.31847 4.89 6.80449C4.54 6.18972 4.45 5.4641 4.63 4.77878C4.81 4.08339 5.25 3.50894 5.87 3.15621L7.6 2.15847C8.73 1.48324 10.22 1.87628 10.9 3.03527L11.02 3.23683C11.61 4.2648 12.42 4.2648 13.01 3.23683L13.12 3.04535C13.8 1.87628 15.29 1.48324 16.43 2.16855L18.15 3.16628C18.76 3.51902 19.2 4.09347 19.39 4.78886C19.57 5.48425 19.48 6.1998 19.13 6.81457C18.84 7.32855 18.76 7.79214 18.93 8.08441C19.1 8.37668 19.53 8.548 20.12 8.548C21.58 8.548 22.77 9.7473 22.77 11.2187V12.9925C22.77 14.4639 21.58 15.6632 20.12 15.6632C19.53 15.6632 19.1 15.8345 18.93 16.1268C18.76 16.419 18.83 16.8826 19.13 17.3966C19.48 18.0114 19.58 18.737 19.39 19.4223C19.21 20.1177 18.77 20.6921 18.15 21.0449L16.42 22.0426C16.04 22.2543 15.63 22.3651 15.21 22.3651ZM12 18.6362C12.89 18.6362 13.72 19.2006 14.29 20.1983L14.4 20.3898C14.52 20.6014 14.72 20.7526 14.96 20.8131C15.2 20.8736 15.44 20.8433 15.64 20.7224L17.37 19.7146C17.63 19.5634 17.83 19.3114 17.91 19.0091C17.99 18.7068 17.95 18.3943 17.8 18.1323C17.23 17.1446 17.16 16.1268 17.6 15.3507C18.04 14.5747 18.95 14.1313 20.09 14.1313C20.73 14.1313 21.24 13.6173 21.24 12.9723V11.1985C21.24 10.5636 20.73 10.0396 20.09 10.0396C18.95 10.0396 18.04 9.59613 17.6 8.82011C17.16 8.0441 17.23 7.02621 17.8 6.03855C17.95 5.77652 17.99 5.4641 17.91 5.16175C17.83 4.85941 17.64 4.61753 17.38 4.45628L15.65 3.45855C15.22 3.19652 14.65 3.34769 14.39 3.79113L14.28 3.98261C13.71 4.98035 12.88 5.54472 11.99 5.54472C11.1 5.54472 10.27 4.98035 9.7 3.98261L9.59 3.78105C9.34 3.35777 8.78 3.2066 8.35 3.45855L6.62 4.46636C6.36 4.61753 6.16 4.86949 6.08 5.17183C6 5.47418 6.04 5.7866 6.19 6.04863C6.76 7.03628 6.83 8.05418 6.39 8.83019C5.95 9.60621 5.04 10.0496 3.9 10.0496C3.26 10.0496 2.75 10.5636 2.75 11.2086V12.9824C2.75 13.6173 3.26 14.1414 3.9 14.1414C5.04 14.1414 5.95 14.5848 6.39 15.3608C6.83 16.1368 6.76 17.1547 6.19 18.1424C6.04 18.4044 6 18.7168 6.08 19.0192C6.16 19.3215 6.35 19.5634 6.61 19.7246L8.34 20.7224C8.55 20.8534 8.8 20.8836 9.03 20.8232C9.27 20.7627 9.47 20.6014 9.6 20.3898L9.71 20.1983C10.28 19.2107 11.11 18.6362 12 18.6362Z" fill="white"/>
</svg>
