<svg width="24" height="25" viewBox="0 0 24 25" fill="none" xmlns="http://www.w3.org/2000/svg">
<path d="M17.9981 7.21594C17.9381 7.20586 17.8681 7.20586 17.8081 7.21594C16.4281 7.16555 15.3281 6.02672 15.3281 4.61578C15.3281 3.17461 16.4781 2.01562 17.9081 2.01562C19.3381 2.01562 20.4881 3.18469 20.4881 4.61578C20.4781 6.02672 19.3781 7.16555 17.9981 7.21594Z" stroke="white" stroke-width="1.5" stroke-linecap="round" stroke-linejoin="round"/>
<path d="M16.9675 14.553C18.3375 14.7848 19.8475 14.5429 20.9075 13.8273C22.3175 12.88 22.3175 11.328 20.9075 10.3806C19.8375 9.66509 18.3075 9.4232 16.9375 9.66508" stroke="white" stroke-width="1.5" stroke-linecap="round" stroke-linejoin="round"/>
<path d="M5.96656 7.21594C6.02656 7.20586 6.09656 7.20586 6.15656 7.21594C7.53656 7.16555 8.63656 6.02672 8.63656 4.61578C8.63656 3.17461 7.48656 2.01562 6.05656 2.01562C4.62656 2.01562 3.47656 3.18469 3.47656 4.61578C3.48656 6.02672 4.58656 7.16555 5.96656 7.21594Z" stroke="white" stroke-width="1.5" stroke-linecap="round" stroke-linejoin="round"/>
<path d="M6.9975 14.553C5.6275 14.7848 4.1175 14.5429 3.0575 13.8273C1.6475 12.88 1.6475 11.328 3.0575 10.3806C4.1275 9.66509 5.6575 9.4232 7.0275 9.66508" stroke="white" stroke-width="1.5" stroke-linecap="round" stroke-linejoin="round"/>
<path d="M12.0001 14.7433C11.9401 14.7332 11.8701 14.7332 11.8101 14.7433C10.4301 14.6929 9.33008 13.5541 9.33008 12.1431C9.33008 10.702 10.4801 9.54297 11.9101 9.54297C13.3401 9.54297 14.4901 10.712 14.4901 12.1431C14.4801 13.5541 13.3801 14.703 12.0001 14.7433Z" stroke="white" stroke-width="1.5" stroke-linecap="round" stroke-linejoin="round"/>
<path d="M9.0907 17.9184C7.6807 18.8657 7.6807 20.4178 9.0907 21.3651C10.6907 22.4435 13.3107 22.4435 14.9107 21.3651C16.3207 20.4178 16.3207 18.8657 14.9107 17.9184C13.3207 16.8501 10.6907 16.8501 9.0907 17.9184Z" stroke="white" stroke-width="1.5" stroke-linecap="round" stroke-linejoin="round"/>
</svg>
