<svg width="21" height="21" viewBox="0 0 21 21" fill="none" xmlns="http://www.w3.org/2000/svg">
<path d="M11.0066 19.898C10.4815 19.8979 9.96482 19.7201 9.55643 19.3647L8.23956 18.2222C8.1062 18.1037 7.77284 17.9852 7.59783 17.9852L6.13941 17.985C4.90601 17.9849 3.90584 16.9693 3.9057 15.717L3.90554 14.27C3.90552 14.0923 3.78881 13.7538 3.68046 13.6269L2.54691 12.2729C1.86344 11.452 1.8633 10.1658 2.54658 9.33659L3.67983 7.98282C3.78815 7.85591 3.90479 7.51745 3.90477 7.33975L3.90461 5.90123C3.90447 4.64888 4.90441 3.63357 6.13782 3.63372L7.57956 3.63388C7.75457 3.6339 8.07958 3.50701 8.22124 3.38856L9.53785 2.24636C10.3545 1.54412 11.6296 1.54427 12.4464 2.2467L13.7632 3.3892C13.8966 3.50768 14.2383 3.62618 14.4133 3.6262L15.83 3.62637C17.0634 3.62651 18.0636 4.64205 18.0637 5.8944L18.0639 7.33291C18.0639 7.51061 18.189 7.84064 18.3057 7.9845L19.4309 9.32161C20.131 10.1594 20.1228 11.4541 19.4312 12.2748L18.3063 13.6116C18.1896 13.7555 18.073 14.0855 18.073 14.2632L18.0732 15.7017C18.0733 16.954 17.0734 17.9693 15.84 17.9692L14.4232 17.969C14.2482 17.969 13.9232 18.0959 13.7732 18.2144L12.4566 19.3566C12.0483 19.7204 11.5233 19.898 11.0066 19.898ZM6.13796 4.90299C5.59626 4.90293 5.15462 5.35136 5.15468 5.90138L5.15484 7.33989C5.15489 7.82222 4.93828 8.43145 4.62997 8.80373L3.49673 10.1575C3.21342 10.5044 3.21348 11.1137 3.49687 11.4522L4.62208 12.7977C4.92214 13.1447 5.14722 13.7794 5.14728 14.2617L5.14744 15.7087C5.1475 16.2587 5.58924 16.7072 6.13094 16.7073L7.58102 16.7074C8.04771 16.7075 8.66444 16.936 9.03116 17.2492L10.3564 18.4001C10.6981 18.6963 11.2981 18.6964 11.6398 18.4003L12.9564 17.2581C13.3314 16.9366 13.9397 16.7166 14.4064 16.7167L15.8232 16.7168C16.3649 16.7169 16.8065 16.2685 16.8064 15.7185L16.8063 14.28C16.8062 13.8061 17.0312 13.1884 17.3395 12.8076L18.4727 11.4623C18.7644 11.1154 18.7643 10.5062 18.4726 10.1592L17.3474 8.82212C17.0306 8.4413 16.8139 7.82356 16.8138 7.34969L16.8137 5.90272C16.8136 5.3527 16.3719 4.90417 15.8302 4.90411L14.4134 4.90394C13.9384 4.90389 13.3217 4.67535 12.9549 4.36222L11.6297 3.21125C11.288 2.91505 10.6963 2.91498 10.3463 3.21111L9.03806 4.36177C8.66307 4.67481 8.05473 4.90321 7.57971 4.90316L6.13796 4.90299Z" fill="white"/>
<path d="M10.9976 14.9307C10.5393 14.9307 10.1642 14.5499 10.1642 14.0845C10.1641 13.6191 10.5308 13.2383 10.9974 13.2384C11.4558 13.2384 11.8309 13.6193 11.8309 14.0847C11.831 14.5501 11.4643 14.9308 10.9976 14.9307Z" fill="white"/>
<path d="M10.9987 12.2672C10.657 12.2672 10.3736 11.9795 10.3736 11.6325L10.3731 7.53698C10.3731 7.19005 10.6564 6.90238 10.9981 6.90242C11.3398 6.90245 11.6231 7.19019 11.6232 7.53713L11.6236 11.6242C11.6237 11.9796 11.3487 12.2673 10.9987 12.2672Z" fill="white"/>
</svg>
