<svg width="20" height="20" viewBox="0 0 20 20" fill="none" xmlns="http://www.w3.org/2000/svg">
<path d="M8.90355 15.0486C5.0875 15.0482 1.98364 11.8967 1.9832 8.02197C1.98277 4.14729 5.08593 0.99645 8.90198 0.996888C12.718 0.997327 15.8219 4.14888 15.8223 8.02356C15.8228 11.8982 12.7117 15.0491 8.90355 15.0486ZM8.90212 2.21074C5.74319 2.21038 3.17042 4.82268 3.17077 8.03014C3.17113 11.2376 5.74448 13.8425 8.90341 13.8428C12.0623 13.8432 14.6351 11.2309 14.6348 8.02342C14.6344 4.81596 12.061 2.2111 8.90212 2.21074Z" fill="white"/>
<path d="M14.4698 18.2665C13.0051 18.2664 11.6274 17.5427 10.7802 16.3207C10.5901 16.0474 10.6534 15.6696 10.9226 15.4767C11.1917 15.2838 11.5639 15.3481 11.7539 15.6215C12.3795 16.5219 13.3929 17.0526 14.4696 17.0527C16.3064 17.0529 17.7946 15.5418 17.7944 13.6768C17.7943 12.5916 17.2717 11.5625 16.4007 10.9274C16.1315 10.7344 16.0761 10.3566 16.266 10.0833C16.456 9.81 16.8281 9.75377 17.0973 9.94673C18.2771 10.807 18.9818 12.1978 18.982 13.6769C18.9823 16.2172 16.9637 18.2668 14.4698 18.2665Z" fill="white"/>
</svg>
