<svg width="20" height="20" viewBox="0 0 20 20" fill="none" xmlns="http://www.w3.org/2000/svg">
<path d="M10.4992 18.3585C5.8043 18.358 1.98782 14.4829 1.98729 9.71588C1.98676 4.9489 5.80238 1.07466 10.4972 1.0752C15.1921 1.07574 19.0086 4.95086 19.0091 9.71784C19.0096 14.4848 15.194 18.3591 10.4992 18.3585ZM10.4974 2.28101C6.45963 2.28055 3.1744 5.61625 3.17486 9.71602C3.17531 13.8158 6.46129 17.1522 10.499 17.1527C14.5367 17.1532 17.822 13.8175 17.8215 9.7177C17.8211 5.61794 14.5351 2.28147 10.4974 2.28101Z" fill="white"/>
<path d="M10.498 11.9294C9.29461 11.9292 8.32069 10.9404 8.32056 9.71847C8.32042 8.49658 9.29412 7.50792 10.4975 7.50806C11.7009 7.5082 12.6748 8.49708 12.675 9.71897C12.6751 10.9409 11.7014 11.9295 10.498 11.9294ZM10.4977 8.71388C9.95137 8.71381 9.50806 9.16393 9.50813 9.71861C9.50819 10.2733 9.9516 10.7235 10.4979 10.7236C11.0442 10.7236 11.4875 10.2735 11.4874 9.71884C11.4873 9.16416 11.0439 8.71394 10.4977 8.71388Z" fill="white"/>
</svg>
