<svg width="25" height="25" viewBox="0 0 25 25" fill="none" xmlns="http://www.w3.org/2000/svg">
<path fill-rule="evenodd" clip-rule="evenodd" d="M9.11557 9.85938L14.1152 6.85995L14.8871 8.14628L9.88746 11.1457L9.11557 9.85938ZM14.1164 17.1462L9.11605 14.1456L9.88765 12.8595L14.888 15.86L14.1164 17.1462Z" fill="white"/>
<path fill-rule="evenodd" clip-rule="evenodd" d="M17.1215 3.8087C15.9775 3.80857 15.0503 4.73134 15.0504 5.86977C15.0505 7.00819 15.978 7.93118 17.1219 7.93131C18.2658 7.93144 19.1931 7.00867 19.1929 5.87024C19.1928 4.73182 18.2654 3.80883 17.1215 3.8087ZM13.5199 5.86959C13.5197 3.88996 15.1321 2.28534 17.1213 2.28557C19.1105 2.2858 20.7232 3.89079 20.7234 5.87042C20.7237 7.85005 19.1113 9.45467 17.1221 9.45444C15.1329 9.45421 13.5202 7.84922 13.5199 5.86959Z" fill="white"/>
<path fill-rule="evenodd" clip-rule="evenodd" d="M6.91833 9.90245C5.7744 9.90232 4.84717 10.8251 4.8473 11.9635C4.84742 13.1019 5.77486 14.0249 6.91879 14.0251C8.06272 14.0252 8.98995 13.1024 8.98982 11.964C8.9897 10.8256 8.06226 9.90258 6.91833 9.90245ZM3.31681 11.9633C3.31659 9.98371 4.92897 8.37909 6.91816 8.37932C8.90735 8.37955 10.5201 9.98454 10.5203 11.9642C10.5205 13.9438 8.90815 15.5484 6.91896 15.5482C4.92976 15.548 3.31703 13.943 3.31681 11.9633Z" fill="white"/>
<path fill-rule="evenodd" clip-rule="evenodd" d="M17.1234 15.9962C15.9795 15.9961 15.0522 16.9188 15.0524 18.0573C15.0525 19.1957 15.9799 20.1187 17.1239 20.1188C18.2678 20.1189 19.195 19.1962 19.1949 18.0577C19.1948 16.9193 18.2673 15.9963 17.1234 15.9962ZM13.5219 18.0571C13.5217 16.0775 15.134 14.4728 17.1232 14.4731C19.1124 14.4733 20.7252 16.0783 20.7254 18.0579C20.7256 20.0375 19.1132 21.6422 17.124 21.6419C15.1348 21.6417 13.5221 20.0367 13.5219 18.0571Z" fill="white"/>
</svg>
