<svg width="26" height="25" viewBox="0 0 26 25" fill="none" xmlns="http://www.w3.org/2000/svg">
<path d="M5.84443 23.1053C5.4159 23.1052 5.01796 23.0036 4.66082 22.8005C3.87512 22.3435 3.42607 21.4194 3.42594 20.272L3.42435 5.95453C3.42406 3.37536 5.5359 1.27368 8.12753 1.27398L17.9737 1.27511C20.5653 1.27541 22.6776 3.37757 22.6779 5.95674L22.6795 20.264C22.6796 21.4114 22.2308 22.3354 21.4452 22.7923C20.6596 23.2491 19.6291 23.1982 18.6189 22.6396L13.6394 19.8873C13.3435 19.7248 12.7619 19.7247 12.466 19.8871L7.48711 22.6384C6.93617 22.9429 6.375 23.1053 5.84443 23.1053ZM8.13791 2.79711C6.39315 2.79691 4.96485 4.21834 4.96504 5.9547L4.96664 20.262C4.9667 20.8611 5.14021 21.3079 5.44633 21.4805C5.75244 21.6634 6.23199 21.6025 6.75233 21.3081L11.7312 18.5569C12.4862 18.1406 13.629 18.1408 14.3841 18.5572L19.3636 21.3095C19.884 21.6041 20.3635 21.665 20.6696 21.4823C20.9757 21.2996 21.1491 20.8528 21.149 20.2638L21.1474 5.95656C21.1472 4.22019 19.7186 2.79844 17.9739 2.79824L8.13791 2.79711Z" fill="white"/>
</svg>
