<svg width="21" height="21" viewBox="0 0 21 21" fill="none" xmlns="http://www.w3.org/2000/svg">
<path d="M10.9935 13.0254C9.72675 13.0252 8.70157 11.9843 8.70143 10.6981C8.70129 9.4119 9.72623 8.37121 10.993 8.37136C12.2597 8.3715 13.2849 9.41243 13.285 10.6986C13.2852 11.9848 12.2602 13.0255 10.9935 13.0254ZM10.9931 9.64063C10.4181 9.64057 9.95144 10.1144 9.9515 10.6982C9.95157 11.2821 10.4183 11.756 10.9933 11.7561C11.5684 11.7562 12.035 11.2824 12.035 10.6985C12.0349 10.1146 11.5681 9.6407 10.9931 9.64063Z" fill="white"/>
<path d="M17.6617 16.4121C17.5284 16.4121 17.4033 16.3698 17.2867 16.2851C17.0116 16.0735 16.9532 15.6758 17.1616 15.3966C18.1698 14.0344 18.703 12.4098 18.7028 10.7005C18.7026 8.99117 18.169 7.36644 17.1605 6.00397C16.9521 5.7247 17.0104 5.32699 17.2854 5.11547C17.5604 4.90396 17.9521 4.96323 18.1605 5.24249C19.3357 6.82499 19.9526 8.71207 19.9529 10.7006C19.9531 12.6891 19.3366 14.5761 18.1617 16.1583C18.0367 16.3275 17.8534 16.4121 17.6617 16.4121Z" fill="white"/>
<path d="M4.32822 16.4084C4.13655 16.4084 3.95319 16.3237 3.82816 16.1545C2.65292 14.572 2.03601 12.6849 2.03579 10.6964C2.03557 8.70783 2.65206 6.8209 3.82695 5.23866C4.03526 4.95945 4.42696 4.90026 4.702 5.11184C4.97704 5.32342 5.03541 5.72115 4.8271 6.00037C3.81886 7.36261 3.28567 8.98721 3.28586 10.6965C3.28605 12.4058 3.8196 14.0305 4.82815 15.393C5.03652 15.6723 4.97823 16.07 4.70324 16.2815C4.59491 16.3661 4.46157 16.4084 4.32822 16.4084Z" fill="white"/>
<path d="M14.9952 14.3817C14.8619 14.3816 14.7369 14.3393 14.6202 14.2547C14.3451 14.0431 14.2868 13.6454 14.4951 13.3662C15.07 12.5962 15.3699 11.6739 15.3698 10.7008C15.3697 9.72767 15.0696 8.8053 14.4945 8.03521C14.2861 7.75594 14.3444 7.35823 14.6194 7.14671C14.8944 6.9352 15.2861 6.9945 15.4944 7.27376C16.2279 8.27234 16.6198 9.45704 16.6199 10.7009C16.62 11.9448 16.2285 13.1379 15.4952 14.1278C15.3702 14.2971 15.1869 14.3817 14.9952 14.3817Z" fill="white"/>
<path d="M6.99311 14.3779C6.80143 14.3778 6.61807 14.2932 6.49305 14.1239C5.75956 13.1253 5.36774 11.9407 5.3676 10.6968C5.36746 9.45287 5.75902 8.25981 6.49228 7.26985C6.7006 6.99064 7.09227 6.93143 7.36731 7.14301C7.64235 7.35458 7.70072 7.75231 7.49241 8.03153C6.91746 8.80149 6.61756 9.72379 6.61767 10.6969C6.61778 11.67 6.91789 12.5924 7.493 13.3625C7.70138 13.6418 7.64309 14.0395 7.3681 14.251C7.25977 14.3356 7.12645 14.3779 6.99311 14.3779Z" fill="white"/>
</svg>
