<svg width="21" height="22" viewBox="0 0 21 22" fill="none" xmlns="http://www.w3.org/2000/svg">
<path d="M3.82971 12.2223C3.82971 7.43079 7.55577 3.58123 12.1102 3.58123C16.6646 3.58123 20.3906 7.43079 20.3906 12.2223C20.3906 17.0137 16.6646 20.8633 12.1102 20.8633C7.55577 20.8633 3.82971 17.0137 3.82971 12.2223Z" stroke="#A90000"/>
<path d="M3.82971 12.2223C3.82971 7.43079 7.55577 3.58123 12.1102 3.58123C16.6646 3.58123 20.3906 7.43079 20.3906 12.2223C20.3906 17.0137 16.6646 20.8633 12.1102 20.8633C7.55577 20.8633 3.82971 17.0137 3.82971 12.2223Z" stroke="#A90000"/>
<path d="M5.35839 12.2222C5.35839 8.30868 8.40077 5.17087 12.1118 5.17087C15.8228 5.17087 18.8652 8.30868 18.8652 12.2222C18.8652 16.1356 15.8228 19.2734 12.1118 19.2734C8.40077 19.2734 5.35839 16.1356 5.35839 12.2222Z" stroke="#A90000"/>
<path d="M5.35839 12.2222C5.35839 8.30868 8.40077 5.17087 12.1118 5.17087C15.8228 5.17087 18.8652 8.30868 18.8652 12.2222C18.8652 16.1356 15.8228 19.2734 12.1118 19.2734C8.40077 19.2734 5.35839 16.1356 5.35839 12.2222Z" stroke="#A90000"/>
<path d="M6.88512 12.2221C6.88512 9.18657 9.24382 6.76052 12.1115 6.76052C14.9792 6.76052 17.3379 9.18657 17.3379 12.2221C17.3379 15.2575 14.9792 17.6836 12.1115 17.6836C9.24382 17.6836 6.88512 15.2575 6.88512 12.2221Z" stroke="#A90000"/>
<path d="M6.88512 12.2221C6.88512 9.18657 9.24382 6.76052 12.1115 6.76052C14.9792 6.76052 17.3379 9.18657 17.3379 12.2221C17.3379 15.2575 14.9792 17.6836 12.1115 17.6836C9.24382 17.6836 6.88512 15.2575 6.88512 12.2221Z" stroke="#A90000"/>
<path d="M8.41185 12.222C8.41185 10.0645 10.0869 8.35016 12.1112 8.35016C14.1355 8.35016 15.8105 10.0645 15.8105 12.222C15.8105 14.3794 14.1355 16.0938 12.1112 16.0938C10.0869 16.0938 8.41185 14.3794 8.41185 12.222Z" stroke="#A90000"/>
<path d="M8.41185 12.222C8.41185 10.0645 10.0869 8.35016 12.1112 8.35016C14.1355 8.35016 15.8105 10.0645 15.8105 12.222C15.8105 14.3794 14.1355 16.0938 12.1112 16.0938C10.0869 16.0938 8.41185 14.3794 8.41185 12.222Z" stroke="#A90000"/>
<path d="M9.93858 12.2219C9.93858 10.9424 10.9299 9.9398 12.1109 9.9398C13.2919 9.9398 14.2832 10.9424 14.2832 12.2219C14.2832 13.5014 13.2919 14.5039 12.1109 14.5039C10.9299 14.5039 9.93858 13.5014 9.93858 12.2219Z" stroke="#A90000"/>
<path d="M9.93858 12.2219C9.93858 10.9424 10.9299 9.9398 12.1109 9.9398C13.2919 9.9398 14.2832 10.9424 14.2832 12.2219C14.2832 13.5014 13.2919 14.5039 12.1109 14.5039C10.9299 14.5039 9.93858 13.5014 9.93858 12.2219Z" stroke="#A90000"/>
<path d="M7.58902 1.25666C7.56436 0.666123 9.41394 4.3557 11.7494 10.2457C12.056 11.019 11.3305 11.7963 10.5394 11.5391C8.23632 10.7901 6.65472 10.1852 6.2767 10.0491C5.72338 9.84975 3.83526 9.18111 2.51386 8.70167C1.60541 8.37206 1.64207 8.25747 2.60886 8.28986C4.02533 8.33731 6.10337 8.24714 7.05393 7.42121C8.56261 5.9537 7.67774 3.38161 7.58902 1.25666Z" fill="white" stroke="#A90000"/>
</svg>
