<svg width="24" height="25" viewBox="0 0 24 25" fill="none" xmlns="http://www.w3.org/2000/svg">
<path d="M13 11.2383H7" stroke="white" stroke-width="1.5" stroke-linecap="round" stroke-linejoin="round"/>
<path d="M2 11.2382V6.58211C2 4.52617 3.65 2.86328 5.69 2.86328H11.31C13.35 2.86328 15 4.1432 15 6.19914" stroke="white" stroke-width="1.5" stroke-linecap="round" stroke-linejoin="round"/>
<path d="M17.48 12.2965C16.98 12.7802 16.74 13.526 16.94 14.2919C17.19 15.2292 18.11 15.8238 19.07 15.8238H20V17.2852C20 19.5124 18.21 21.3164 16 21.3164H6C3.79 21.3164 2 19.5124 2 17.2852V10.2305C2 8.0032 3.79 6.19922 6 6.19922H16C18.2 6.19922 20 8.01328 20 10.2305V11.6917H18.92C18.36 11.6917 17.85 11.9135 17.48 12.2965Z" stroke="white" stroke-width="1.5" stroke-linecap="round" stroke-linejoin="round"/>
<path d="M22.0002 12.7194V14.7955C22.0002 15.3599 21.5402 15.8235 20.9702 15.8235H19.0402C17.9602 15.8235 16.9702 15.0273 16.8802 13.9389C16.8202 13.3039 17.0602 12.7093 17.4802 12.2961C17.8502 11.9132 18.3602 11.6914 18.9202 11.6914H20.9702C21.5402 11.6914 22.0002 12.155 22.0002 12.7194Z" stroke="white" stroke-width="1.5" stroke-linecap="round" stroke-linejoin="round"/>
</svg>
