<svg width="197" height="214" viewBox="0 0 197 214" fill="none" xmlns="http://www.w3.org/2000/svg">
<g opacity="0.7">
<path d="M170 57.375H116C114.155 57.375 112.625 55.845 112.625 54C112.625 52.155 114.155 50.625 116 50.625H170C171.845 50.625 173.375 52.155 173.375 54C173.375 55.845 171.845 57.375 170 57.375Z" fill="#54547E"/>
<path d="M143 84.375C141.155 84.375 139.625 82.845 139.625 81V27C139.625 25.155 141.155 23.625 143 23.625C144.845 23.625 146.375 25.155 146.375 27V81C146.375 82.845 144.845 84.375 143 84.375Z" fill="#54547E"/>
</g>
<g opacity="0.2">
<path d="M87.4994 126.499C107.635 126.499 123.958 110.176 123.958 90.0404C123.958 69.905 107.635 53.582 87.4994 53.582C67.364 53.582 51.041 69.905 51.041 90.0404C51.041 110.176 67.364 126.499 87.4994 126.499Z" fill="white"/>
<path d="M87.5 144.73C50.9687 144.73 21.2188 169.23 21.2188 199.418C21.2188 201.46 22.8229 203.064 24.8646 203.064H150.135C152.177 203.064 153.781 201.46 153.781 199.418C153.781 169.23 124.031 144.73 87.5 144.73Z" fill="white"/>
</g>
</svg>
