<svg width="25" height="25" viewBox="0 0 25 25" fill="none" xmlns="http://www.w3.org/2000/svg">
<path d="M12.0023 20.7164C7.45208 20.7158 3.75145 16.9583 3.75093 12.3382C3.75042 7.718 7.45021 3.96136 12.0005 3.96189C16.5507 3.96241 20.2514 7.71989 20.2519 12.3401C20.2524 16.9602 16.5526 20.7169 12.0023 20.7164ZM12.0006 5.48502C8.28043 5.48459 5.2506 8.56097 5.25102 12.3383C5.25144 16.1157 8.28195 19.1928 12.0022 19.1932C15.7224 19.1936 18.7522 16.1173 18.7518 12.3399C18.7514 8.56252 15.7208 5.48545 12.0006 5.48502Z" fill="white"/>
<path d="M12.003 16.1473C9.9329 16.1471 8.25261 14.441 8.25238 12.3391C8.25214 10.2372 9.93205 8.53144 12.0022 8.53168C14.0723 8.53192 15.7526 10.238 15.7528 12.3399C15.753 14.4419 14.0731 16.1476 12.003 16.1473ZM12.0023 10.0548C10.7623 10.0547 9.75232 11.0801 9.75246 12.3393C9.7526 13.5984 10.7628 14.6241 12.0028 14.6242C13.2429 14.6244 14.2529 13.5989 14.2527 12.3398C14.2526 11.0806 13.2424 10.055 12.0023 10.0548Z" fill="white"/>
<path d="M12.0004 4.97594C11.5904 4.97589 11.2504 4.63061 11.2503 4.21429L11.2501 2.18344C11.25 1.76712 11.59 1.42191 12 1.42196C12.4101 1.42201 12.7501 1.76729 12.7502 2.18361L12.7504 4.21446C12.7504 4.63078 12.4105 4.97599 12.0004 4.97594Z" fill="white"/>
<path d="M4.00228 13.0977L2.00217 13.0974C1.59214 13.0974 1.25208 12.7521 1.25204 12.3358C1.25199 11.9195 1.59197 11.5743 2.002 11.5743L4.00211 11.5745C4.41213 11.5746 4.75219 11.9199 4.75224 12.3362C4.75228 12.7525 4.4123 13.0977 4.00228 13.0977Z" fill="white"/>
<path d="M12.0024 23.2533C11.5924 23.2532 11.2523 22.908 11.2523 22.4916L11.252 20.4608C11.252 20.0445 11.592 19.6993 12.002 19.6993C12.412 19.6994 12.7521 20.0446 12.7521 20.461L12.7523 22.4918C12.7524 22.9081 12.4124 23.2533 12.0024 23.2533Z" fill="white"/>
<path d="M22.0023 13.1016L20.0022 13.1013C19.5921 13.1013 19.2521 12.756 19.252 12.3397C19.252 11.9234 19.592 11.5782 20.002 11.5782L22.0021 11.5784C22.4121 11.5785 22.7522 11.9238 22.7522 12.3401C22.7523 12.7564 22.4123 13.1016 22.0023 13.1016Z" fill="white"/>
</svg>
