<svg width="21" height="20" viewBox="0 0 21 20" fill="none" xmlns="http://www.w3.org/2000/svg">
<path d="M13.6854 18.1336H10.4906C10.0197 18.1336 8.99405 17.9941 8.44757 17.4608L5.90014 15.541L6.67362 14.5646L9.2799 16.5337C9.49008 16.7306 10.0197 16.8947 10.4906 16.8947H13.6854C14.442 16.8947 15.2575 16.304 15.4257 15.6394L17.4603 9.60901C17.5948 9.24801 17.5696 8.91982 17.393 8.68189C17.208 8.42754 16.8717 8.27986 16.4598 8.27986H13.0968C12.6597 8.27986 12.2561 8.09936 11.9787 7.78758C11.6928 7.4676 11.5667 7.04096 11.634 6.59791L12.0543 3.96422C12.1552 3.50477 11.8357 2.98787 11.3817 2.84019C10.9698 2.69251 10.4401 2.90583 10.2552 3.16838L6.80814 8.1732L5.76562 7.49222L9.21264 2.48739C9.74231 1.71616 10.9025 1.34695 11.8105 1.68334C12.8614 2.01973 13.534 3.15197 13.2986 4.20216L12.8867 6.78662C12.8782 6.84405 12.8783 6.9261 12.9371 6.99173C12.9791 7.03276 13.038 7.05737 13.1052 7.05737H16.4682C17.2921 7.05737 18.0067 7.39376 18.4271 7.97629C18.8391 8.54241 18.9231 9.28903 18.6541 10.011L16.6447 15.984C16.3337 17.1737 15.0389 18.1336 13.6854 18.1336Z" fill="#22E6B8"/>
<path d="M4.52385 17.2288H3.68312C2.12776 17.2288 1.37109 16.515 1.37109 15.0546V7.01407C1.37109 5.55365 2.12776 4.83984 3.68312 4.83984H4.52385C6.07921 4.83984 6.83588 5.55365 6.83588 7.01407V15.0546C6.83588 16.515 6.07921 17.2288 4.52385 17.2288ZM3.68312 6.07054C2.76672 6.07054 2.6322 6.28386 2.6322 7.01407V15.0546C2.6322 15.7848 2.76672 15.9981 3.68312 15.9981H4.52385C5.44025 15.9981 5.57477 15.7848 5.57477 15.0546V7.01407C5.57477 6.28386 5.44025 6.07054 4.52385 6.07054H3.68312Z" fill="#22E6B8"/>
</svg>
