<svg width="21" height="21" viewBox="0 0 21 21" fill="none" xmlns="http://www.w3.org/2000/svg">
<path d="M3.7926 9.14103C3.7926 13.9325 7.51866 17.7821 12.0731 17.7821C16.6275 17.7821 20.3535 13.9325 20.3535 9.14103C20.3535 4.34956 16.6275 0.5 12.0731 0.5C7.51866 0.5 3.7926 4.34956 3.7926 9.14103Z" stroke="#03A900"/>
<path d="M3.7926 9.14103C3.7926 13.9325 7.51866 17.7821 12.0731 17.7821C16.6275 17.7821 20.3535 13.9325 20.3535 9.14103C20.3535 4.34956 16.6275 0.5 12.0731 0.5C7.51866 0.5 3.7926 4.34956 3.7926 9.14103Z" stroke="#03A900"/>
<path d="M5.32128 9.14113C5.32128 13.0546 8.36366 16.1924 12.0747 16.1924C15.7857 16.1924 18.8281 13.0546 18.8281 9.14113C18.8281 5.22765 15.7857 2.08984 12.0747 2.08984C8.36366 2.08984 5.32128 5.22765 5.32128 9.14113Z" stroke="#03A900"/>
<path d="M5.32128 9.14113C5.32128 13.0546 8.36366 16.1924 12.0747 16.1924C15.7857 16.1924 18.8281 13.0546 18.8281 9.14113C18.8281 5.22765 15.7857 2.08984 12.0747 2.08984C8.36366 2.08984 5.32128 5.22765 5.32128 9.14113Z" stroke="#03A900"/>
<path d="M6.84801 9.14123C6.84801 12.1767 9.20671 14.6028 12.0744 14.6028C14.9421 14.6028 17.3008 12.1767 17.3008 9.14123C17.3008 6.10575 14.9421 3.67969 12.0744 3.67969C9.20671 3.67969 6.84801 6.10575 6.84801 9.14123Z" stroke="#03A900"/>
<path d="M6.84801 9.14123C6.84801 12.1767 9.20671 14.6028 12.0744 14.6028C14.9421 14.6028 17.3008 12.1767 17.3008 9.14123C17.3008 6.10575 14.9421 3.67969 12.0744 3.67969C9.20671 3.67969 6.84801 6.10575 6.84801 9.14123Z" stroke="#03A900"/>
<path d="M8.37474 9.14133C8.37474 11.2988 10.0498 13.0131 12.0741 13.0131C14.0984 13.0131 15.7734 11.2988 15.7734 9.14133C15.7734 6.98384 14.0984 5.26953 12.0741 5.26953C10.0498 5.26953 8.37474 6.98384 8.37474 9.14133Z" stroke="#03A900"/>
<path d="M8.37474 9.14133C8.37474 11.2988 10.0498 13.0131 12.0741 13.0131C14.0984 13.0131 15.7734 11.2988 15.7734 9.14133C15.7734 6.98384 14.0984 5.26953 12.0741 5.26953C10.0498 5.26953 8.37474 6.98384 8.37474 9.14133Z" stroke="#03A900"/>
<path d="M9.90147 9.14143C9.90147 10.4209 10.8928 11.4235 12.0738 11.4235C13.2547 11.4235 14.2461 10.4209 14.2461 9.14143C14.2461 7.86193 13.2547 6.85937 12.0738 6.85937C10.8928 6.85937 9.90147 7.86193 9.90147 9.14143Z" stroke="#03A900"/>
<path d="M9.90147 9.14143C9.90147 10.4209 10.8928 11.4235 12.0738 11.4235C13.2547 11.4235 14.2461 10.4209 14.2461 9.14143C14.2461 7.86193 13.2547 6.85937 12.0738 6.85937C10.8928 6.85937 9.90147 7.86193 9.90147 9.14143Z" stroke="#03A900"/>
<path d="M7.55386 20.1066C7.5292 20.6972 9.37878 17.0076 11.7142 11.1176C12.0208 10.3443 11.2954 9.56698 10.5043 9.82423C8.20116 10.5732 6.61956 11.1781 6.24155 11.3142C5.68823 11.5135 3.80011 12.1822 2.47871 12.6616C1.57026 12.9912 1.60692 13.1058 2.57371 13.0734C3.99017 13.026 6.06822 13.1161 7.01877 13.9421C8.52745 15.4096 7.64258 17.9817 7.55386 20.1066Z" fill="white" stroke="#03A900"/>
</svg>
