<svg width="18" height="18" viewBox="0 0 18 18" fill="none" xmlns="http://www.w3.org/2000/svg">
<path d="M9 17.4375C7.33122 17.4375 5.69992 16.9427 4.31238 16.0155C2.92484 15.0884 1.84338 13.7706 1.20477 12.2289C0.566156 10.6871 0.399065 8.99064 0.724628 7.35393C1.05019 5.71721 1.85379 4.2138 3.03379 3.03379C4.2138 1.85378 5.71721 1.05019 7.35393 0.724628C8.99064 0.399065 10.6871 0.566156 12.2289 1.20477C13.7706 1.84338 15.0884 2.92484 16.0155 4.31238C16.9427 5.69992 17.4375 7.33122 17.4375 9C17.4348 11.2369 16.545 13.3815 14.9633 14.9633C13.3815 16.545 11.2369 17.4348 9 17.4375ZM9 1.6875C7.55373 1.6875 6.13993 2.11637 4.9374 2.91988C3.73486 3.72339 2.7976 4.86545 2.24413 6.20163C1.69067 7.53782 1.54586 9.00812 1.82801 10.4266C2.11017 11.8451 2.80661 13.1481 3.82929 14.1707C4.85196 15.1934 6.15492 15.8898 7.57341 16.172C8.99189 16.4541 10.4622 16.3093 11.7984 15.7559C13.1346 15.2024 14.2766 14.2651 15.0801 13.0626C15.8836 11.8601 16.3125 10.4463 16.3125 9C16.3101 7.06134 15.5389 5.20276 14.1681 3.83192C12.7972 2.46107 10.9387 1.68989 9 1.6875Z" fill="white"/>
<path d="M9 13.7059C8.85082 13.7059 8.70774 13.6466 8.60225 13.5411C8.49676 13.4356 8.4375 13.2926 8.4375 13.1434V7.875C8.4375 7.72582 8.49676 7.58274 8.60225 7.47725C8.70774 7.37176 8.85082 7.3125 9 7.3125C9.14918 7.3125 9.29226 7.37176 9.39775 7.47725C9.50324 7.58274 9.5625 7.72582 9.5625 7.875V13.1434C9.5625 13.2926 9.50324 13.4356 9.39775 13.5411C9.29226 13.6466 9.14918 13.7059 9 13.7059Z" fill="white"/>
<path d="M9.00021 6.19618C8.92675 6.19192 8.85433 6.17676 8.78534 6.15118C8.71765 6.123 8.65669 6.08083 8.60646 6.02743C8.55106 5.9785 8.50855 5.91668 8.48271 5.84743C8.45173 5.7805 8.43634 5.70741 8.43771 5.63368C8.43558 5.55807 8.44952 5.48288 8.47861 5.41306C8.5077 5.34324 8.55128 5.2804 8.60646 5.22868C8.65966 5.17883 8.71994 5.13713 8.78534 5.10493C8.92261 5.04836 9.07669 5.04836 9.21396 5.10493C9.27953 5.13685 9.33984 5.17858 9.39284 5.22868C9.44834 5.28021 9.49221 5.34299 9.52151 5.41283C9.5508 5.48268 9.56485 5.55797 9.56271 5.63368C9.56409 5.70741 9.5487 5.7805 9.51771 5.84743C9.48662 5.91409 9.44439 5.97496 9.39284 6.02743C9.34281 6.08107 9.2818 6.12328 9.21396 6.15118C9.14536 6.17676 9.07331 6.19193 9.00021 6.19618Z" fill="white"/>
</svg>
