<svg width="25" height="25" viewBox="0 0 25 25" fill="none" xmlns="http://www.w3.org/2000/svg">
<path d="M16.6154 22.4437L12.7379 22.443C12.1665 22.443 10.9216 22.2701 10.2583 21.61L7.16612 19.2335L8.10467 18.0254L11.2683 20.4628C11.5234 20.7066 12.1663 20.9098 12.7377 20.9099L16.6151 20.9105C17.5335 20.9107 18.5231 20.1798 18.7271 19.3574L21.1952 11.8949C21.3583 11.4482 21.3277 11.042 21.1133 10.7475C20.8888 10.4327 20.4806 10.2499 19.9806 10.2498L15.8991 10.2491C15.3685 10.249 14.8787 10.0256 14.5419 9.63966C14.1949 9.2436 14.0418 8.71559 14.1233 8.16731L14.6329 4.90809C14.7553 4.33951 14.3674 3.69976 13.8164 3.5169C13.3164 3.33405 12.6736 3.59793 12.4492 3.92281L8.26663 10.1158L7.00121 9.27282L11.1838 3.07984C11.8264 2.12551 13.2345 1.66884 14.3366 2.08533C15.6121 2.50185 16.4287 3.90319 16.1432 5.2028L15.6437 8.40111C15.6335 8.47218 15.6335 8.57372 15.705 8.65496C15.756 8.70573 15.8274 8.73621 15.9091 8.73622L19.9906 8.73693C20.9906 8.7371 21.858 9.15355 22.3683 9.87454C22.8684 10.5752 22.9706 11.4992 22.6442 12.3927L20.2067 19.7841C19.8294 21.2563 18.2582 22.444 16.6154 22.4437Z" fill="white"/>
<path d="M5.49498 21.3248L4.4746 21.3246C2.58689 21.3243 1.6684 20.4408 1.6681 18.6334L1.66646 8.6829C1.66616 6.87555 2.58436 5.99235 4.47207 5.99267L5.49245 5.99285C7.38015 5.99318 8.29864 6.8767 8.29894 8.68404L8.30058 18.6346C8.30088 20.4419 7.38269 21.3251 5.49498 21.3248ZM4.47232 7.51571C3.3601 7.51552 3.19688 7.77949 3.19703 8.68316L3.19868 18.6337C3.19883 19.5374 3.36213 19.8014 4.47435 19.8016L5.49473 19.8018C6.60694 19.802 6.77016 19.538 6.77001 18.6343L6.76837 8.68378C6.76822 7.78011 6.60492 7.51608 5.4927 7.51589L4.47232 7.51571Z" fill="white"/>
</svg>
