<svg width="20" height="20" viewBox="0 0 20 20" fill="none" xmlns="http://www.w3.org/2000/svg">
<path d="M10.1205 12.3145C9.96823 12.3145 9.81597 12.2584 9.69577 12.1382C9.46339 11.9059 9.46339 11.5212 9.69577 11.2888L11.3225 9.66213L9.69577 8.03542C9.46339 7.80304 9.46339 7.4184 9.69577 7.18601C9.92816 6.95362 10.3128 6.95362 10.5452 7.18601L12.5966 9.23742C12.829 9.46981 12.829 9.85445 12.5966 10.0868L10.5452 12.1382C10.433 12.2584 10.2727 12.3145 10.1205 12.3145Z" fill="#00C1CE"/>
<path d="M12.1158 10.2645H3.96623C3.63769 10.2645 3.36523 9.99205 3.36523 9.6635C3.36523 9.33495 3.63769 9.0625 3.96623 9.0625H12.1158C12.4443 9.0625 12.7168 9.33495 12.7168 9.6635C12.7168 9.99205 12.4443 10.2645 12.1158 10.2645Z" fill="#00C1CE"/>
<path d="M10.3783 16.6288C10.0498 16.6288 9.77734 16.3563 9.77734 16.0278C9.77734 15.6993 10.0498 15.4268 10.3783 15.4268C13.8 15.4268 16.188 13.0388 16.188 9.61714C16.188 6.19544 13.8 3.80747 10.3783 3.80747C10.0498 3.80747 9.77734 3.53502 9.77734 3.20647C9.77734 2.87792 10.0498 2.60547 10.3783 2.60547C14.5052 2.60547 17.39 5.49027 17.39 9.61714C17.39 13.744 14.5052 16.6288 10.3783 16.6288Z" fill="#00C1CE"/>
</svg>
