<svg width="24" height="24" viewBox="0 0 24 24" fill="none" xmlns="http://www.w3.org/2000/svg">
<path d="M15.2405 22.2666H15.1105C10.6705 22.2666 8.5305 20.5166 8.1605 16.5966C8.1205 16.1866 8.4205 15.8166 8.8405 15.7766C9.2405 15.7366 9.6205 16.0466 9.6605 16.4566C9.9505 19.5966 11.4305 20.7666 15.1205 20.7666H15.2505C19.3205 20.7666 20.7605 19.3266 20.7605 15.2566V8.73656C20.7605 4.66656 19.3205 3.22656 15.2505 3.22656H15.1205C11.4105 3.22656 9.9305 4.41656 9.6605 7.61656C9.6105 8.02656 9.2605 8.33656 8.8405 8.29656C8.4205 8.26656 8.1205 7.89656 8.1505 7.48656C8.4905 3.50656 10.6405 1.72656 15.1105 1.72656H15.2405C20.1505 1.72656 22.2505 3.82656 22.2505 8.73656V15.2566C22.2505 20.1666 20.1505 22.2666 15.2405 22.2666Z" fill="white"/>
<path d="M14.9991 12.75H3.61914C3.20914 12.75 2.86914 12.41 2.86914 12C2.86914 11.59 3.20914 11.25 3.61914 11.25H14.9991C15.4091 11.25 15.7491 11.59 15.7491 12C15.7491 12.41 15.4091 12.75 14.9991 12.75Z" fill="white"/>
<path d="M5.84945 16.1038C5.65945 16.1038 5.46945 16.0338 5.31945 15.8838L1.96945 12.5338C1.67945 12.2438 1.67945 11.7638 1.96945 11.4738L5.31945 8.12375C5.60945 7.83375 6.08945 7.83375 6.37945 8.12375C6.66945 8.41375 6.66945 8.89375 6.37945 9.18375L3.55945 12.0038L6.37945 14.8238C6.66945 15.1137 6.66945 15.5938 6.37945 15.8838C6.23945 16.0338 6.03945 16.1038 5.84945 16.1038Z" fill="white"/>
</svg>
