<svg width="23" height="21" viewBox="0 0 23 21" fill="none" xmlns="http://www.w3.org/2000/svg">
<path d="M11.1992 14.6563C10.8332 14.6563 10.4672 14.63 10.1195 14.5687C8.1795 14.2975 6.41341 13.23 5.29702 11.6462C4.51921 10.5262 4.10742 9.2225 4.10742 7.875C4.10742 4.13875 7.29188 1.09375 11.1992 1.09375C15.1066 1.09375 18.2911 4.13875 18.2911 7.875C18.2911 9.2225 17.8793 10.5262 17.1015 11.6462C15.9759 13.2387 14.2098 14.2975 12.2516 14.5775C11.9313 14.63 11.5653 14.6563 11.1992 14.6563ZM11.1992 2.40625C8.04224 2.40625 5.48003 4.85625 5.48003 7.875C5.48003 8.96875 5.80946 10.0188 6.43171 10.9113C7.33763 12.1888 8.756 13.0463 10.3299 13.265C10.9156 13.3613 11.4921 13.3613 12.032 13.265C13.6333 13.0463 15.0517 12.18 15.9576 10.9025C16.5799 10.01 16.9093 8.95999 16.9093 7.86624C16.9185 4.85624 14.3563 2.40625 11.1992 2.40625Z" fill="#FFAF1A"/>
<path d="M6.13915 19.7684C6.01104 19.7684 5.89208 19.7509 5.76397 19.7247C5.16917 19.5934 4.71164 19.1559 4.57438 18.5872L4.2541 17.3009C4.2358 17.2222 4.17174 17.1609 4.08023 17.1347L2.57036 16.7934C2.00302 16.6622 1.55463 16.2597 1.39907 15.7259C1.2435 15.1922 1.39907 14.6147 1.81085 14.2209L5.37964 10.8084C5.52605 10.6684 5.72737 10.5984 5.92868 10.6159C6.13 10.6334 6.31302 10.7384 6.43198 10.9047C7.3379 12.1822 8.75626 13.0484 10.3393 13.2672C10.925 13.3634 11.5015 13.3634 12.0414 13.2672C13.6428 13.0484 15.0611 12.1822 15.967 10.9047C16.0769 10.7384 16.269 10.6334 16.4703 10.6159C16.6717 10.5984 16.873 10.6684 17.0194 10.8084L20.5882 14.2209C21 14.6147 21.1555 15.1922 21 15.7259C20.8444 16.2597 20.3869 16.6709 19.8287 16.7934L18.3188 17.1347C18.2364 17.1522 18.1724 17.2134 18.1449 17.3009L17.8246 18.5872C17.6874 19.1559 17.2299 19.5934 16.6351 19.7247C16.0403 19.8647 15.4272 19.6634 15.0428 19.2172L11.1995 14.9909L7.3562 19.2259C7.04508 19.5759 6.60584 19.7684 6.13915 19.7684ZM5.79142 12.2784L2.78083 15.1572C2.69847 15.2359 2.70762 15.3234 2.72592 15.3759C2.73508 15.4197 2.78083 15.5072 2.89064 15.5247L4.40051 15.8659C4.99531 15.9972 5.45285 16.4347 5.59011 17.0034L5.91038 18.2897C5.93784 18.4034 6.02934 18.4384 6.08425 18.4559C6.13915 18.4647 6.23066 18.4734 6.31302 18.3859L9.81775 14.5272C8.26212 14.2384 6.83461 13.4422 5.79142 12.2784ZM12.5813 14.5184L16.086 18.3684C16.1684 18.4647 16.269 18.4647 16.3239 18.4472C16.3788 18.4384 16.4612 18.3947 16.4978 18.2809L16.8181 16.9947C16.9553 16.4259 17.4129 15.9884 18.0077 15.8572L19.5175 15.5159C19.6273 15.4897 19.6731 15.4109 19.6823 15.3672C19.7006 15.3234 19.7097 15.2272 19.6273 15.1484L16.6168 12.2697C15.5644 13.4334 14.1461 14.2297 12.5813 14.5184Z" fill="#FFAF1A"/>
<path d="M12.9317 11.2797C12.6938 11.2797 12.4101 11.2185 12.0715 11.026L11.2022 10.5272L10.3329 11.0172C9.53675 11.4722 9.01516 11.2097 8.82299 11.0784C8.63083 10.9472 8.21904 10.5535 8.42951 9.6872L8.64913 8.78595L7.91707 8.13844C7.51444 7.75344 7.36803 7.2897 7.50529 6.8697C7.64255 6.4497 8.04518 6.15219 8.61253 6.06469L9.59166 5.9072L10.0583 4.9272C10.3237 4.42845 10.7355 4.14844 11.2022 4.14844C11.6689 4.14844 12.0898 4.43721 12.346 4.93596L12.8859 5.96845L13.7918 6.07345C14.35 6.16095 14.7527 6.45843 14.8991 6.87843C15.0363 7.29843 14.8899 7.76219 14.4873 8.14719L13.7278 8.87346L13.9657 9.6872C14.1762 10.5535 13.7644 10.9472 13.5722 11.0784C13.4716 11.1572 13.252 11.2797 12.9317 11.2797ZM9.01516 7.34221L9.64656 7.94593C9.93938 8.22593 10.0858 8.69845 9.99429 9.08345L9.82042 9.78344L10.5525 9.37219C10.946 9.15344 11.4767 9.15344 11.861 9.37219L12.5931 9.78344L12.4284 9.08345C12.3369 8.6897 12.4741 8.22593 12.767 7.94593L13.3984 7.34221L12.6022 7.21094C12.2179 7.14969 11.8336 6.87846 11.6597 6.54596L11.2022 5.68845L10.7446 6.56345C10.5799 6.8872 10.1956 7.1672 9.81127 7.22845L9.01516 7.34221Z" fill="#FFAF1A"/>
</svg>
