<svg width="25" height="25" viewBox="0 0 25 25" fill="none" xmlns="http://www.w3.org/2000/svg">
<path d="M12.418 23.1704C11.714 23.1703 11.0507 22.8148 10.5812 22.1954L9.05028 20.1644C9.01966 20.1238 8.89721 20.073 8.84618 20.0628L8.33599 20.0627C4.081 20.062 1.44823 18.9142 1.44728 13.2078L1.44644 8.13103C1.4457 3.64314 3.8228 1.27775 8.33289 1.27853L16.4959 1.27995C21.006 1.28073 23.3839 3.64693 23.3847 8.13483L23.3855 13.2116C23.3862 17.6995 21.0091 20.0649 16.499 20.0641L15.9889 20.064C15.9072 20.064 15.8358 20.1046 15.7848 20.1655L14.2546 22.196C13.7853 22.8153 13.1221 23.1706 12.418 23.1704ZM8.33314 2.80158C4.68017 2.80095 2.97642 4.4963 2.97702 8.1313L2.97786 13.2081C2.97861 17.7975 4.56033 18.539 8.33574 18.5397L8.84593 18.5398C9.36633 18.5399 9.9582 18.8344 10.2746 19.2508L11.8055 21.2818C12.1627 21.7489 12.6729 21.749 13.03 21.282L14.5602 19.2515C14.8968 18.8048 15.4274 18.5409 15.9886 18.541L16.4988 18.5411C20.1518 18.5417 21.8555 16.8464 21.8549 13.2114L21.8541 8.13456C21.8535 4.49957 20.1492 2.80362 16.4962 2.80299L8.33314 2.80158Z" fill="white"/>
</svg>
