<svg width="24" height="24" viewBox="0 0 24 24" fill="none" xmlns="http://www.w3.org/2000/svg">
<path d="M15 22.75H9C3.57 22.75 1.25 20.43 1.25 15V9C1.25 3.57 3.57 1.25 9 1.25H15C20.43 1.25 22.75 3.57 22.75 9V15C22.75 20.43 20.43 22.75 15 22.75ZM9 2.75C4.39 2.75 2.75 4.39 2.75 9V15C2.75 19.61 4.39 21.25 9 21.25H15C19.61 21.25 21.25 19.61 21.25 15V9C21.25 4.39 19.61 2.75 15 2.75H9Z" fill="white"/>
<path d="M8.56976 16.0162C8.37976 16.0162 8.18977 15.9462 8.03977 15.7962C7.74977 15.5062 7.74977 15.0262 8.03977 14.7362L14.5898 8.18625C14.8798 7.89625 15.3598 7.89625 15.6498 8.18625C15.9398 8.47625 15.9398 8.95625 15.6498 9.24625L9.09976 15.7962C8.94976 15.9462 8.75976 16.0162 8.56976 16.0162Z" fill="white"/>
<path d="M8.98001 11.1084C7.89001 11.1084 7 10.2184 7 9.12845C7 8.03845 7.89001 7.14844 8.98001 7.14844C10.07 7.14844 10.96 8.03845 10.96 9.12845C10.96 10.2184 10.07 11.1084 8.98001 11.1084ZM8.98001 8.65845C8.72001 8.65845 8.5 8.86846 8.5 9.13846C8.5 9.40846 8.71001 9.61844 8.98001 9.61844C9.25001 9.61844 9.45999 9.40846 9.45999 9.13846C9.45999 8.86846 9.24001 8.65845 8.98001 8.65845Z" fill="white"/>
<path d="M15.519 16.8428C14.429 16.8428 13.5391 15.9528 13.5391 14.8628C13.5391 13.7728 14.429 12.8828 15.519 12.8828C16.609 12.8828 17.4991 13.7728 17.4991 14.8628C17.4991 15.9528 16.609 16.8428 15.519 16.8428ZM15.519 14.3928C15.259 14.3928 15.0391 14.6028 15.0391 14.8728C15.0391 15.1428 15.249 15.3528 15.519 15.3528C15.789 15.3528 15.9991 15.1428 15.9991 14.8728C15.9991 14.6028 15.789 14.3928 15.519 14.3928Z" fill="white"/>
</svg>
