<svg width="25" height="24" viewBox="0 0 25 24" fill="none" xmlns="http://www.w3.org/2000/svg">
<path d="M12.1468 22.7575C11.0436 22.7575 9.95055 22.4375 9.09025 21.8075L4.73818 18.5975C3.58437 17.7475 2.68359 15.9675 2.68359 14.5575V7.1175C2.68359 5.5775 3.82728 3.9375 5.29484 3.3975L10.3453 1.5275C11.3473 1.1575 12.9262 1.1575 13.9281 1.5275L18.9786 3.3975C20.4461 3.9375 21.5898 5.5775 21.5898 7.1175V14.5475C21.5898 15.9675 20.689 17.7375 19.5352 18.5875L15.1832 21.7975C14.3431 22.4375 13.25 22.7575 12.1468 22.7575ZM10.8817 2.9375L5.83126 4.8075C4.97096 5.1275 4.21188 6.2075 4.21188 7.1275V14.5575C4.21188 15.5075 4.88999 16.8375 5.64908 17.3975L10.0012 20.6075C11.1651 21.4675 13.1286 21.4675 14.3026 20.6075L18.6547 17.3975C19.4239 16.8275 20.0919 15.5075 20.0919 14.5575V7.1175C20.0919 6.2075 19.3328 5.1275 18.4725 4.7975L13.4221 2.9275C12.7339 2.6875 11.5598 2.6875 10.8817 2.9375Z" fill="#00C1CE"/>
<path d="M10.7884 14.2272C10.5961 14.2272 10.4038 14.1572 10.252 14.0072L8.62248 12.3972C8.32897 12.1072 8.32897 11.6272 8.62248 11.3372C8.91599 11.0472 9.4018 11.0472 9.69531 11.3372L10.7884 12.4172L14.6041 8.64719C14.8976 8.35719 15.3834 8.35719 15.6769 8.64719C15.9704 8.93719 15.9704 9.41719 15.6769 9.70719L11.3248 14.0072C11.173 14.1572 10.9807 14.2272 10.7884 14.2272Z" fill="#00C1CE"/>
</svg>
